:version 1.10
:name ASF
:units
  mass 1
  length 1
  angle deg
:documentation
  ASF file generated by Kaydara
:root
  axis xyz
  order  tx ty tz rx ry rz
  position 0 0 0
  orientation 0 0 0
:bonedata
  begin
    id 1
    name LeftUpLegDummy
    direction 1 -2.30186e-007 -8.31532e-007
    length 2.93387
    axis 0 0 0 xyz
  end
  begin
    id 2
    name LeftUpLeg
    direction -1.82929e-007 -1 -1.48925e-009
    length 17.3336
    axis -3.48766 0.00143442 -0.000521554 xyz
    dof rx ry rz
  end
  begin
    id 3
    name LeftLeg
    direction -1.82929e-007 -1 -5.23717e-011
    length 14.9995
    axis 3.68178 -0.00654042 -0.000282425 xyz
    dof rx ry rz
  end
  begin
    id 4
    name LeftFoot
    direction 8.31532e-007 -4.54534e-011 1
    length 6.74421
    axis 1.87234e-006 4.66016e-005 -5.96866e-006 xyz
    dof rx ry rz
  end
  begin
    id 5
    name LeftToes
    direction 0.00818058 -0.00485161 0.999955
    length 3.85048
    axis 1.06247e-005 4.65869e-005 -5.96999e-006 xyz
    dof rx ry rz
  end
  begin
    id 6
    name SpineDummy
    direction -5.8607e-008 0.943407 -0.331637
    length 5.93572
    axis 0 0 0 xyz
  end
  begin
    id 7
    name Spine
    direction -1.04988e-007 0.999988 0.00495137
    length 10.1015
    axis -0.001389 0.000121417 6.61666e-006 xyz
    dof rx ry rz
  end
  begin
    id 8
    name Spine1
    direction 0 0 0
    length 0
    axis -0.001389 0.00012144 6.56766e-006 xyz
    dof rx ry rz
  end
  begin
    id 9
    name RightShoulderDummy
    direction -0.98348 0.17941 -0.0240696
    length 3.59882
    axis -0.001389 0.00012144 6.56766e-006 xyz
  end
  begin
    id 10
    name RightShoulder
    direction -0.978693 0.204882 0.0135597
    length 2.70001
    axis 0.215806 0.000203631 -0.00679732 xyz
    dof rx ry rz
  end
  begin
    id 11
    name RightArm
    direction -1 3.85509e-006 8.31394e-007
    length 10.2459
    axis -23.2009 -0.134239 -0.964098 xyz
    dof rx ry rz
  end
  begin
    id 12
    name RightForeArm
    direction -1 3.85569e-006 8.3129e-007
    length 8.16799
    axis -9.92322 0.0658061 0.17887 xyz
    dof rx ry rz
  end
  begin
    id 13
    name RightHand
    direction -0.992843 -0.0414604 0.112003
    length 5.28593
    axis -0.00960638 0.00330669 -0.185225 xyz
    dof rx ry rz
  end
  begin
    id 14
    name LeftShoulder1Dummy
    direction 0.983523 0.179172 -0.0240748
    length 3.59866
    axis -0.001389 0.00012144 6.56766e-006 xyz
  end
  begin
    id 15
    name LeftShoulder1
    direction 0.978627 0.205195 0.0135605
    length 2.70019
    axis -0.001389 0.00012144 6.57583e-006 xyz
    dof rx ry rz
  end
  begin
    id 16
    name LeftArm
    direction 1 3.51895e-006 -8.60188e-007
    length 10.2459
    axis -23.1894 0.134785 0.967513 xyz
    dof rx ry rz
  end
  begin
    id 17
    name LeftForeArm
    direction 1 3.51921e-006 -7.32029e-007
    length 8.16799
    axis -9.91835 -0.0656957 -0.177789 xyz
    dof rx ry rz
  end
  begin
    id 18
    name LeftHand
    direction 0.992938 -0.0411636 0.11126
    length 5.32135
    axis -0.00960237 -0.00340661 0.185177 xyz
    dof rx ry rz
  end
  begin
    id 19
    name HEadDummy
    direction 1.01974e-006 0.999861 -0.016675
    length 2.99946
    axis -0.001389 0.00012144 6.56766e-006 xyz
  end
  begin
    id 20
    name HEad
    direction -0.0222689 0.980941 0.193023
    length 5.12695
    axis -0.001389 0.00012144 6.56766e-006 xyz
    dof rx ry rz
  end
  begin
    id 21
    name RightUpLegDummy
    direction -1 2.30186e-007 8.31532e-007
    length 2.93387
    axis 0 0 0 xyz
  end
  begin
    id 22
    name RightUpLeg
    direction -1.82966e-007 -1 1.56832e-007
    length 17.3336
    axis -3.4909 -0.000906625 0.00028951 xyz
    dof rx ry rz
  end
  begin
    id 23
    name RightLeg
    direction -1.82786e-007 -1 -1.80317e-007
    length 14.9995
    axis 3.68513 0.0193739 -0.131021 xyz
    dof rx ry rz
  end
  begin
    id 24
    name RightFoot
    direction 8.31721e-007 -4.63324e-011 1
    length 6.74421
    axis 4.81691e-005 -0.120479 -0.188785 xyz
    dof rx ry rz
  end
  begin
    id 25
    name RightToes
    direction 0.00124746 -0.014064 0.9999
    length 3.85082
    axis 0.000481921 0.542163 -0.142575 xyz
    dof rx ry rz
  end
:hierarchy
  begin
    root LeftUpLegDummy SpineDummy RightUpLegDummy
    LeftUpLegDummy LeftUpLeg
    LeftUpLeg LeftLeg
    LeftLeg LeftFoot
    LeftFoot LeftToes
    SpineDummy Spine
    Spine Spine1
    Spine1 RightShoulderDummy LeftShoulder1Dummy HEadDummy
    RightShoulderDummy RightShoulder
    RightShoulder RightArm
    RightArm RightForeArm
    RightForeArm RightHand
    LeftShoulder1Dummy LeftShoulder1
    LeftShoulder1 LeftArm
    LeftArm LeftForeArm
    LeftForeArm LeftHand
    HEadDummy HEad
    RightUpLegDummy RightUpLeg
    RightUpLeg RightLeg
    RightLeg RightFoot
    RightFoot RightToes
  end

:SAMPLES-PER-SECOND 30
:FULLY-SPECIFIED
:DEGREES
1
root  2.5691 33.832 1.74479 8.84978 -32.9678 -0.716427
LeftUpLeg  -4.56049 23.6625 2.54857
LeftLeg  19.1188 32.7043 8.48402
LeftFoot  -4.09665 -0.100619 -2.81276
LeftToes  -10.645 8.556e-007 1.17171e-007
Spine  1.23236 -7.7668 7.35328
Spine1  1.21619 -15.9283 14.6164
RightShoulder  0.0922839 1.12063 13.727
RightArm  -35.2347 -13.8543 54.8754
RightForeArm  26.055 15.9796 2.89063
RightHand  1.58274 -14.0816 -12.3871
LeftShoulder1  0.0318804 -4.70467 -2.23461
LeftArm  17.8653 3.26289 -69.3331
LeftForeArm  28.5762 -56.4832 -15.4899
LeftHand  -0.0361394 3.92708 -1.42152
HEad  -17.4186 -61.3655 33.6554
RightUpLeg  -20.4104 6.70758 -5.13957
RightLeg  14.7089 34.1981 6.27332
RightFoot  5.49577 -0.163144 3.75571
RightToes  -31.5115 -0.167517 -0.26963
2
root  2.51446 33.8185 1.66842 8.71471 -32.5727 -0.575835
LeftUpLeg  -4.6419 23.6576 2.65247
LeftLeg  19.1521 32.1974 8.38711
LeftFoot  -4.27547 -0.107526 -2.87999
LeftToes  -10.4943 8.556e-007 1.17171e-007
Spine  1.16442 -7.88088 7.2832
Spine1  1.01929 -16.2307 14.6223
RightShoulder  0.0921192 1.24595 13.5528
RightArm  -35.15 -15.6162 55.0087
RightForeArm  27.1372 14.6289 2.63457
RightHand  1.53245 -14.303 -11.7932
LeftShoulder1  0.0318804 -4.77301 -2.04478
LeftArm  17.9937 -0.349334 -70.4646
LeftForeArm  30.8727 -62.3929 -19.7955
LeftHand  -0.0107077 3.39426 -0.729829
HEad  -16.2029 -61.1881 32.522
RightUpLeg  -20.3705 6.29712 -5.08419
RightLeg  14.7785 34.2548 6.32258
RightFoot  5.4051 -0.158956 3.69072
RightToes  -31.93 -0.167517 -0.26963
3
root  2.4666 33.8056 1.59393 8.51933 -32.0046 -0.374621
LeftUpLeg  -4.77975 23.5989 2.7058
LeftLeg  19.2906 31.499 8.30268
LeftFoot  -4.75288 -0.128998 -3.1076
LeftToes  -9.24323 8.556e-007 1.17171e-007
Spine  1.11396 -8.02554 7.18029
Spine1  0.890079 -16.5691 14.5297
RightShoulder  0.0919574 1.36381 13.3801
RightArm  -35.4232 -17.001 55.5202
RightForeArm  28.3481 13.4706 2.41743
RightHand  1.49044 -14.4982 -11.3024
LeftShoulder1  0.0318804 -4.73507 -1.6379
LeftArm  17.7989 -3.62019 -72.419
LeftForeArm  34.1806 -67.9833 -26.0112
LeftHand  -0.000825344 3.56622 -0.395677
HEad  -15.3054 -60.9688 31.7532
RightUpLeg  -20.2032 5.60945 -5.05917
RightLeg  14.6781 34.4375 6.29378
RightFoot  5.3263 -0.156563 3.65357
RightToes  -32.6008 -0.167517 -0.26963
4
root  2.42999 33.8 1.52332 8.30217 -31.433 -0.161204
LeftUpLeg  -4.97024 23.3299 2.69312
LeftLeg  19.5077 30.6331 8.21664
LeftFoot  -5.34681 -0.157313 -3.36808
LeftToes  -7.96451 8.556e-007 1.17171e-007
Spine  1.07177 -8.15392 7.08915
Spine1  0.796032 -16.8529 14.4278
RightShoulder  0.0918233 1.4641 13.2364
RightArm  -36.0402 -18.0361 56.1776
RightForeArm  29.2533 12.6687 2.26833
RightHand  1.46653 -14.7007 -10.9576
LeftShoulder1  0.0318804 -4.74335 -1.28972
LeftArm  17.764 -6.42491 -74.7283
LeftForeArm  39.9195 -73.0829 -35.7193
LeftHand  0.00901974 4.31911 -0.130554
HEad  -14.6625 -60.8531 31.0943
RightUpLeg  -19.991 5.05975 -5.07925
RightLeg  14.4644 34.4359 6.1697
RightFoot  5.33592 -0.156615 3.65438
RightToes  -33.3308 -0.167517 -0.269893
5
root  2.39642 33.8018 1.46352 8.10202 -30.9956 -0.0128587
LeftUpLeg  -5.09361 22.9213 2.70053
LeftLeg  19.6702 29.9166 8.1306
LeftFoot  -5.70076 -0.173549 -3.48458
LeftToes  -7.57941 8.556e-007 1.17171e-007
Spine  1.06938 -8.2293 7.02118
Spine1  0.788732 -17.023 14.3407
RightShoulder  0.0917082 1.56694 13.1143
RightArm  -37.0496 -18.7556 56.9663
RightForeArm  29.5081 12.2971 2.19963
RightHand  1.47573 -14.744 -10.9945
LeftShoulder1  0.0290572 -4.84001 -1.10046
LeftArm  18.0433 -8.90225 -76.922
LeftForeArm  52.0464 -77.2193 -51.6125
LeftHand  0.00226728 4.77934 -0.315166
HEad  -14.2671 -60.7178 30.5425
RightUpLeg  -19.719 4.96113 -5.11952
RightLeg  14.0827 34.1447 5.90472
RightFoot  5.41526 -0.157204 3.66353
RightToes  -33.4301 -0.167556 -0.270094
6
root  2.37296 33.8065 1.40765 7.91435 -30.6776 0.0578188
LeftUpLeg  -5.08999 22.4855 2.76174
LeftLeg  19.6531 29.1725 7.9399
LeftFoot  -5.93575 -0.182333 -3.51576
LeftToes  -7.47793 8.556e-007 1.17171e-007
Spine  1.09232 -8.26517 6.98738
Spine1  0.835662 -17.1018 14.288
RightShoulder  0.0915856 1.70693 12.9878
RightArm  -37.9416 -19.155 57.7394
RightForeArm  29.0126 12.3395 2.20771
RightHand  1.48239 -14.7471 -11.0431
LeftShoulder1  0.0268297 -4.88873 -0.985078
LeftArm  18.6075 -11.2931 -79.0815
LeftForeArm  71.0855 -79.5027 -73.9001
LeftHand  -0.0240144 5.03467 -0.91492
HEad  -13.7715 -60.4616 29.9307
RightUpLeg  -19.4984 4.7611 -5.08841
RightLeg  13.8696 34.0912 5.77445
RightFoot  5.50438 -0.160461 3.71407
RightToes  -33.4528 -0.167508 -0.27025
7
root  2.35435 33.8099 1.35073 7.71727 -30.4449 0.123724
LeftUpLeg  -5.03842 22.1771 2.82632
LeftLeg  19.5918 28.5705 7.76072
LeftFoot  -6.05563 -0.184968 -3.49584
LeftToes  -7.61538 8.556e-007 1.17171e-007
Spine  1.11974 -8.29626 6.96391
Spine1  0.904527 -17.1497 14.2182
RightShoulder  0.0914191 1.87451 12.8132
RightArm  -38.5704 -19.1578 58.5067
RightForeArm  28.5371 12.626 2.2608
RightHand  1.44801 -14.6604 -10.8463
LeftShoulder1  0.0248207 -4.84649 -0.818592
LeftArm  19.5168 -13.4607 -80.9411
LeftForeArm  93.9901 -79.7454 -99.8624
LeftHand  -0.0332526 5.579 -1.05109
HEad  -13.147 -60.1372 29.1812
RightUpLeg  -19.341 4.5329 -5.04575
RightLeg  13.8111 34.1344 5.74736
RightFoot  5.55706 -0.164073 3.75678
RightToes  -33.3485 -0.167395 -0.270381
8
root  2.34012 33.8162 1.29542 7.52199 -30.3278 0.192151
LeftUpLeg  -4.93414 21.9443 2.8731
LeftLeg  19.42 27.845 7.49653
LeftFoot  -6.21747 -0.185746 -3.47609
LeftToes  -7.53564 8.556e-007 1.17171e-007
Spine  1.14358 -8.30375 6.94743
Spine1  0.982124 -17.1297 14.1281
RightShoulder  0.0912431 2.03573 12.6261
RightArm  -38.7305 -18.7786 59.1823
RightForeArm  28.1111 13.1136 2.35124
RightHand  1.41508 -14.5612 -10.6678
LeftShoulder1  0.0225535 -4.76384 -0.606936
LeftArm  20.579 -15.3462 -82.3701
LeftForeArm  112.818 -78.2272 -121.099
LeftHand  -0.0112128 5.7353 -0.593077
HEad  -12.3205 -59.7912 28.2563
RightUpLeg  -19.1939 4.34466 -5.00459
RightLeg  13.7233 34.2322 5.71131
RightFoot  5.65721 -0.171621 3.84154
RightToes  -33.28 -0.167243 -0.270505
9
root  2.33201 33.8267 1.24676 7.29264 -30.2961 0.261795
LeftUpLeg  -4.75968 21.6605 2.89146
LeftLeg  19.2225 27.4079 7.29282
LeftFoot  -6.30074 -0.186003 -3.45212
LeftToes  -7.41069 8.556e-007 1.17171e-007
Spine  1.18724 -8.26797 6.94363
Spine1  1.11424 -17.0098 14.035
RightShoulder  0.0910464 2.09635 12.396
RightArm  -38.2068 -18.0846 59.7402
RightForeArm  27.5013 13.8718 2.49258
RightHand  1.38385 -14.3401 -10.5927
LeftShoulder1  0.0196108 -4.43339 -0.369387
LeftArm  21.6686 -17.2458 -83.7106
LeftForeArm  123.478 -76.0317 -134.09
LeftHand  -0.0110122 5.91536 -0.582402
HEad  -11.4982 -59.425 27.3282
RightUpLeg  -18.9819 4.21573 -4.97692
RightLeg  13.5377 34.3512 5.6218
RightFoot  5.79291 -0.181528 3.95517
RightToes  -32.9464 -0.167075 -0.270643
